<?xml version="1.0" encoding="UTF-8"?>
<svg id="_레이어_1" data-name="레이어 1" xmlns="http://www.w3.org/2000/svg" xmlns:xlink="http://www.w3.org/1999/xlink" viewBox="0 0 428.99 359.69">
  <defs>
    <style>
      .cls-1 {
        fill: url(#_무제_그라디언트_502-2);
      }

      .cls-1, .cls-2, .cls-3, .cls-4, .cls-5, .cls-6 {
        stroke-width: 0px;
      }

      .cls-2 {
        fill: url(#_무제_그라디언트_502);
      }

      .cls-3 {
        fill: url(#_무제_그라디언트_332);
      }

      .cls-4 {
        fill: url(#_무제_그라디언트_213);
      }

      .cls-5 {
        fill: url(#_무제_그라디언트_221);
      }

      .cls-6 {
        fill: #4dbbff;
      }
    </style>
    <radialGradient id="_무제_그라디언트_502" data-name="무제 그라디언트 502" cx="1068.29" cy="1842.32" fx="1068.29" fy="1842.32" r="48.08" gradientTransform="translate(-794.67 -1558.1) rotate(-.25)" gradientUnits="userSpaceOnUse">
      <stop offset="0" stop-color="#6adeff"/>
      <stop offset="1" stop-color="#ff7843"/>
    </radialGradient>
    <radialGradient id="_무제_그라디언트_502-2" data-name="무제 그라디언트 502" cx="934.36" cy="1842.32" fx="934.36" fy="1842.32" r="48.08" xlink:href="#_무제_그라디언트_502"/>
    <linearGradient id="_무제_그라디언트_332" data-name="무제 그라디언트 332" x1="996.89" y1="1920.89" x2="996.89" y2="1782.13" gradientTransform="translate(-794.67 -1558.1) rotate(-.25)" gradientUnits="userSpaceOnUse">
      <stop offset="0" stop-color="#ff9c43"/>
      <stop offset="1" stop-color="#ff7843"/>
    </linearGradient>
    <linearGradient id="_무제_그라디언트_221" data-name="무제 그라디언트 221" x1="996.89" y1="1934.61" x2="996.89" y2="1783.78" gradientTransform="translate(-794.67 -1558.1) rotate(-.25)" gradientUnits="userSpaceOnUse">
      <stop offset="0" stop-color="#dfd8ff"/>
      <stop offset="1" stop-color="#4dbbff"/>
    </linearGradient>
    <linearGradient id="_무제_그라디언트_213" data-name="무제 그라디언트 213" x1="996.46" y1="1889.17" x2="996.46" y2="1863.36" gradientTransform="translate(-794.67 -1558.1) rotate(-.25)" gradientUnits="userSpaceOnUse">
      <stop offset="0" stop-color="#ffb27f"/>
      <stop offset="1" stop-color="#ff7843"/>
    </linearGradient>
  </defs>
  <path class="cls-2" d="M333.86,259.99c-.03-7.34-4.25-12.82-5.27-13.99-13.51-15.43-54.54-12.92-78.38,9.39-10.44,9.77-27.64,32.74-18.3,50.47,9.95,18.89,45.23,22.69,57.92,8.78,3.47-3.81,4.85-8.47,5.41-12.32.03,0,.07,0,.1,0,11.74-.05,21.23-9.53,21.34-21.23,9.84-1.98,17.22-10.69,17.18-21.1Z"/>
  <path class="cls-1" d="M95.13,261.01c-.03-7.34,4.14-12.85,5.15-14.03,13.38-15.54,54.42-13.39,78.46,8.71,10.53,9.68,27.93,32.5,18.74,50.31-9.79,18.97-45.04,23.08-57.85,9.28-3.51-3.78-4.92-8.43-5.51-12.27-.03,0-.07,0-.1,0-11.74.05-21.31-9.35-21.52-21.05-9.85-1.9-17.31-10.54-17.36-20.95Z"/>
  <g>
    <circle class="cls-6" cx="183.84" cy="256.39" r="23.6"/>
    <path class="cls-3" d="M289.69,264.19l-21.04.09c.66-2.64,1.01-5.41,1-8.26-.08-18.42-15.13-33.34-33.55-33.26-10.61.05-20.06,5.06-26.15,12.82-6.16-7.71-15.65-12.64-26.26-12.6-18.42.08-33.34,15.13-33.26,33.55.01,2.85.38,5.61,1.07,8.25l-21.04.09c-2.31,0-4.18,1.89-4.17,4.21l.14,31.37c0,2.31,1.89,4.18,4.21,4.17l18.75-.08-1.39,37.34c-.15,4.04,1.38,8.03,4.19,10.93,2.81,2.91,6.75,4.56,10.79,4.55l47.07-.2h.86s47.07-.21,47.07-.21c4.04-.02,7.96-1.71,10.75-4.64,2.79-2.93,4.28-6.93,4.09-10.97l-1.71-37.32,18.75-.08c2.31,0,4.18-1.89,4.17-4.21l-.14-31.37c0-2.31-1.89-4.18-4.21-4.17Z"/>
    <path class="cls-5" d="M282.69,274.03l-22.76.1-8.41.04c5.12-4.35,8.36-10.85,8.33-18.1-.06-13.04-10.67-23.56-23.7-23.5-13.04.06-23.56,10.67-23.5,23.7.03,7.25,3.33,13.72,8.49,18.02l-10.58.05h-.86s-10.75.05-10.75.05c5.12-4.35,8.36-10.85,8.33-18.1-.06-13.04-10.67-23.56-23.7-23.5-13.04.06-23.56,10.67-23.5,23.7.03,7.25,3.33,13.72,8.49,18.02l-8.24.04-22.76.1c-.79,0-1.44.65-1.43,1.44l.07,17.27c0,.79.65,1.44,1.44,1.43l21.92-.09-1.77,47.55c-.11,2.91,2.23,5.32,5.14,5.31l47.07-.2h.86s47.07-.21,47.07-.21c2.91-.01,5.23-2.45,5.09-5.36l-2.18-47.53,21.92-.09c.79,0,1.44-.65,1.43-1.44l-.07-17.27c0-.79-.65-1.44-1.44-1.43Z"/>
  </g>
  <path class="cls-4" d="M219.68,297.35c2.56,1.91,3.1,5.53,1.19,8.09l-3.51,4.72-5.36,7.21c-1.03,1.38-3.09,1.4-4.14.03l-5.46-7.13-3.58-4.67c-1.94-2.54-1.46-6.17,1.07-8.11l.29-.23c2.54-1.94,6.17-1.46,8.11,1.07l1.51,1.97,1.48-1.99c1.91-2.56,5.53-3.1,8.09-1.19l.3.22Z"/>
</svg>