<?xml version="1.0" encoding="UTF-8"?>
<svg id="_레이어_1" data-name="레이어 1" xmlns="http://www.w3.org/2000/svg" xmlns:xlink="http://www.w3.org/1999/xlink" viewBox="0 0 428.99 359.69">
  <defs>
    <style>
      .cls-1 {
        fill: url(#_무제_그라디언트_481);
      }

      .cls-1, .cls-2, .cls-3, .cls-4, .cls-5 {
        stroke-width: 0px;
      }

      .cls-2 {
        fill: url(#_무제_그라디언트_11);
      }

      .cls-3 {
        fill: url(#_무제_그라디언트_22);
      }

      .cls-4 {
        fill: url(#_무제_그라디언트_30);
      }

      .cls-5 {
        fill: url(#_무제_그라디언트_4);
      }
    </style>
    <radialGradient id="_무제_그라디언트_481" data-name="무제 그라디언트 481" cx="-1537.9" cy="2579.65" fx="-1537.9" fy="2579.65" r="48.7" gradientTransform="translate(1785.95 -2319.45) rotate(-.77)" gradientUnits="userSpaceOnUse">
      <stop offset="0" stop-color="#fef63a"/>
      <stop offset="0" stop-color="#fefd34"/>
      <stop offset="1" stop-color="#ff55be"/>
    </radialGradient>
    <radialGradient id="_무제_그라디언트_11" data-name="무제 그라디언트 11" cx="-1673.58" cy="2579.65" fx="-1673.58" fy="2579.65" r="48.7" gradientTransform="translate(1785.95 -2319.45) rotate(-.77)" gradientUnits="userSpaceOnUse">
      <stop offset="0" stop-color="#fefd34"/>
      <stop offset="1" stop-color="#ff55be"/>
    </radialGradient>
    <linearGradient id="_무제_그라디언트_22" data-name="무제 그라디언트 22" x1="-1607.13" y1="2650.83" x2="-1607.13" y2="2555.18" gradientTransform="translate(1785.95 -2319.45) rotate(-.77)" gradientUnits="userSpaceOnUse">
      <stop offset="0" stop-color="#ffb27f"/>
      <stop offset="1" stop-color="#ff55be"/>
    </linearGradient>
    <linearGradient id="_무제_그라디언트_30" data-name="무제 그라디언트 30" x1="-1607.13" y1="2646.03" x2="-1607.13" y2="2527.38" gradientTransform="translate(1785.95 -2319.45) rotate(-.77)" gradientUnits="userSpaceOnUse">
      <stop offset="0" stop-color="#ffffb7"/>
      <stop offset="1" stop-color="#ff0"/>
    </linearGradient>
    <linearGradient id="_무제_그라디언트_4" data-name="무제 그라디언트 4" x1="-1607.13" y1="2634.45" x2="-1607.13" y2="2547.06" gradientTransform="translate(1785.95 -2319.45) rotate(-.77)" gradientUnits="userSpaceOnUse">
      <stop offset="0" stop-color="#ffbf95"/>
      <stop offset="1" stop-color="#ff55be"/>
    </linearGradient>
  </defs>
  <path class="cls-1" d="M335.8,260.37c-.1-7.44-4.42-12.94-5.47-14.12-13.83-15.5-55.36-12.58-79.3,10.24-10.49,9.99-27.7,33.42-18.07,51.3,10.26,19.04,46.03,22.56,58.76,8.35,3.48-3.89,4.83-8.63,5.36-12.53.04,0,.07,0,.11,0,11.89-.16,21.41-9.85,21.42-21.7,9.94-2.1,17.35-10.99,17.2-21.54Z"/>
  <path class="cls-2" d="M94,263.63c-.1-7.44,4.07-13.06,5.09-14.26,13.4-15.87,55-14.07,79.55,8.09,10.75,9.71,28.59,32.66,19.45,50.79-9.74,19.31-45.4,23.8-58.51,9.94-3.59-3.8-5.07-8.5-5.7-12.38-.04,0-.07,0-.11,0-11.89.16-21.67-9.27-21.99-21.12-10-1.83-17.64-10.52-17.78-21.06Z"/>
  <path class="cls-3" d="M215.05,357.96c-6.12.08-11.8-2.64-15.56-7.46l-50.61-64.77c-13.54-17.33-10.46-42.45,6.87-55.99l1.52-1.18c6.93-5.41,15.23-8.34,24-8.46,12.49-.17,24.07,5.33,31.81,15.1,7.37-9.95,19.14-15.99,31.55-16.15,8.68-.12,16.99,2.53,24.02,7.66l1.56,1.13c17.77,12.96,21.68,37.96,8.72,55.73l-48.44,66.42c-3.63,4.98-9.26,7.89-15.43,7.97Z"/>
  <path class="cls-4" d="M264.34,235.85c13.37,9.75,16.3,28.49,6.55,41.86l-17.96,24.62-30.48,41.8c-3.71,5.09-11.27,5.22-15.14.25l-31.86-40.78-18.75-24c-10.19-13.04-7.88-31.87,5.16-42.05l1.52-1.18c13.04-10.19,31.87-7.88,42.06,5.17l7.91,10.13,7.58-10.4c9.75-13.37,28.49-16.3,41.86-6.55l1.56,1.14Z"/>
  <path class="cls-5" d="M245.76,256.15c8.44,6.16,10.29,17.99,4.14,26.44l-11.34,15.55-17.3,23.73c-3.32,4.56-10.08,4.67-13.55.22l-18.08-23.15-11.84-15.15c-6.43-8.23-4.98-20.12,3.26-26.56l.96-.75c8.24-6.44,20.13-4.98,26.56,3.26l5,6.4,4.79-6.57c6.16-8.44,18-10.3,26.44-4.14l.98.72Z"/>
</svg>