<?xml version="1.0" encoding="UTF-8"?>
<svg id="_레이어_1" data-name="레이어 1" xmlns="http://www.w3.org/2000/svg" xmlns:xlink="http://www.w3.org/1999/xlink" viewBox="0 0 428.99 359.69">
  <defs>
    <style>
      .cls-1 {
        fill: url(#_무제_그라디언트_133);
      }

      .cls-1, .cls-2, .cls-3, .cls-4, .cls-5 {
        stroke-width: 0px;
      }

      .cls-2 {
        fill: url(#_무제_그라디언트_130);
      }

      .cls-3 {
        fill: url(#_무제_그라디언트_102);
      }

      .cls-4 {
        fill: url(#_무제_그라디언트_69);
      }

      .cls-5 {
        fill: url(#_무제_그라디언트_69-2);
      }
    </style>
    <radialGradient id="_무제_그라디언트_69" data-name="무제 그라디언트 69" cx="534.82" cy="-260.3" fx="534.82" fy="-260.3" r="49.6" gradientTransform="translate(-251.82 546.98) rotate(.12)" gradientUnits="userSpaceOnUse">
      <stop offset="0" stop-color="#ff55be"/>
      <stop offset="1" stop-color="#b5f743"/>
    </radialGradient>
    <radialGradient id="_무제_그라디언트_69-2" data-name="무제 그라디언트 69" cx="396.63" cy="-260.3" fx="396.63" fy="-260.3" r="49.6" xlink:href="#_무제_그라디언트_69"/>
    <linearGradient id="_무제_그라디언트_130" data-name="무제 그라디언트 130" x1="466.09" y1="-158.18" x2="466.09" y2="-300.39" gradientTransform="translate(-251.28 547.96)" gradientUnits="userSpaceOnUse">
      <stop offset="0" stop-color="#ff80be"/>
      <stop offset="1" stop-color="#b5f743"/>
    </linearGradient>
    <radialGradient id="_무제_그라디언트_102" data-name="무제 그라디언트 102" cx="466.09" cy="-254.47" fx="466.09" fy="-254.47" r="54.17" gradientTransform="translate(-251.82 546.98) rotate(.12)" gradientUnits="userSpaceOnUse">
      <stop offset="0" stop-color="#b5f743"/>
      <stop offset="1" stop-color="#ff55be"/>
    </radialGradient>
    <radialGradient id="_무제_그라디언트_133" data-name="무제 그라디언트 133" cx="466.09" cy="-254.47" fx="466.09" fy="-254.47" r="27.11" gradientTransform="translate(-251.82 546.98) rotate(.12)" gradientUnits="userSpaceOnUse">
      <stop offset="0" stop-color="#ff55be"/>
      <stop offset="1" stop-color="#b5f743"/>
    </radialGradient>
  </defs>
  <path class="cls-4" d="M337.65,267.91c.02-7.58-4.3-13.25-5.35-14.47-13.84-16.01-56.18-13.69-80.92,9.17-10.84,10.01-28.74,33.6-19.22,51.95,10.14,19.55,46.52,23.71,59.7,9.44,3.61-3.91,5.06-8.71,5.66-12.67.04,0,.07,0,.11,0,12.11.03,21.96-9.69,22.16-21.76,10.16-1.98,17.84-10.92,17.86-21.66Z"/>
  <path class="cls-5" d="M91.35,267.4c.02-7.58,4.35-13.23,5.41-14.44,13.9-15.95,56.24-13.45,80.88,9.5,10.79,10.05,28.6,33.72,19,52.03-10.22,19.51-46.62,23.51-59.74,9.19-3.59-3.92-5.02-8.73-5.61-12.7-.04,0-.07,0-.11,0-12.11-.03-21.92-9.78-22.06-21.86-10.15-2.02-17.79-10.99-17.77-21.73Z"/>
  <rect class="cls-2" x="152.21" y="230.89" width="125.18" height="125.18" rx="5.39" ry="5.39" transform="translate(.62 -.45) rotate(.12)"/>
  <path class="cls-3" d="M267.64,273.6l-32.8-.07.07-32.8c0-.76-.61-1.38-1.37-1.38l-37.24-.08c-.76,0-1.38.61-1.38,1.37l-.07,32.8-32.8-.07c-.76,0-1.38.61-1.38,1.37l-.08,37.24c0,.76.61,1.38,1.37,1.38l32.8.07-.07,32.8c0,.76.61,1.38,1.37,1.38l37.24.08c.76,0,1.38-.61,1.38-1.37l.07-32.8,32.8.07c.76,0,1.38-.61,1.38-1.37l.08-37.24c0-.76-.61-1.38-1.37-1.38Z"/>
  <path class="cls-1" d="M240.56,283.53l-15.72-.03.03-15.72c0-.76-.61-1.38-1.37-1.38l-17.26-.04c-.76,0-1.38.61-1.38,1.37l-.03,15.72-15.72-.03c-.76,0-1.38.61-1.38,1.37l-.04,17.26c0,.76.61,1.38,1.37,1.38l15.72.03-.03,15.72c0,.76.61,1.38,1.37,1.38l17.26.04c.76,0,1.38-.61,1.38-1.37l.03-15.72,15.72.03c.76,0,1.38-.61,1.38-1.37l.04-17.26c0-.76-.61-1.38-1.37-1.38Z"/>
</svg>