<?xml version="1.0" encoding="UTF-8"?>
<svg id="_레이어_1" data-name="레이어 1" xmlns="http://www.w3.org/2000/svg" xmlns:xlink="http://www.w3.org/1999/xlink" viewBox="0 0 428.99 359.69">
  <defs>
    <style>
      .cls-1 {
        fill: #ff0;
      }

      .cls-1, .cls-2, .cls-3, .cls-4, .cls-5 {
        stroke-width: 0px;
      }

      .cls-2 {
        fill: url(#_무제_그라디언트_19);
      }

      .cls-3 {
        fill: url(#_무제_그라디언트_8);
      }

      .cls-4 {
        fill: url(#_무제_그라디언트_19-3);
      }

      .cls-5 {
        fill: url(#_무제_그라디언트_19-2);
      }
    </style>
    <radialGradient id="_무제_그라디언트_19" data-name="무제 그라디언트 19" cx="-2581.42" cy="4494.77" fx="-2581.42" fy="4494.77" r="49.81" gradientTransform="translate(2894.97 -4201.61) rotate(.32)" gradientUnits="userSpaceOnUse">
      <stop offset="0" stop-color="#fefd34"/>
      <stop offset="1" stop-color="#ff7843"/>
    </radialGradient>
    <radialGradient id="_무제_그라디언트_19-2" data-name="무제 그라디언트 19" cx="-2720.17" cy="4494.77" fx="-2720.17" fy="4494.77" r="49.81" xlink:href="#_무제_그라디언트_19"/>
    <radialGradient id="_무제_그라디언트_8" data-name="무제 그라디언트 8" cx="-2651.13" cy="4504.49" fx="-2651.13" fy="4504.49" r="73.79" gradientTransform="translate(2894.97 -4201.61) rotate(.32)" gradientUnits="userSpaceOnUse">
      <stop offset="0" stop-color="#ff7843"/>
      <stop offset="1" stop-color="#fefd34"/>
    </radialGradient>
    <radialGradient id="_무제_그라디언트_19-3" data-name="무제 그라디언트 19" cx="-2651.13" cy="4504.49" fx="-2651.13" fy="4504.49" r="63.64" xlink:href="#_무제_그라디언트_19"/>
  </defs>
  <path class="cls-2" d="M342.57,258.72c.04-7.61-4.27-13.32-5.32-14.55-13.84-16.12-56.36-13.95-81.29,8.91-10.92,10.01-28.97,33.63-19.48,52.1,10.11,19.67,46.62,23.97,59.91,9.69,3.64-3.91,5.11-8.73,5.73-12.7.04,0,.07,0,.11,0,12.16.07,22.09-9.65,22.32-21.77,10.21-1.95,17.95-10.9,18.01-21.68Z"/>
  <path class="cls-5" d="M95.27,257.32c.04-7.61,4.42-13.27,5.48-14.48,14.02-15.97,56.52-13.31,81.18,9.83,10.8,10.13,28.59,33.96,18.89,52.31-10.34,19.55-46.89,23.44-60.02,9.01-3.59-3.95-5.01-8.79-5.58-12.77-.04,0-.07,0-.11,0-12.16-.07-21.98-9.9-22.08-22.02-10.19-2.07-17.83-11.1-17.77-21.89Z"/>
  <g>
    <path class="cls-3" d="M262.62,271.42c.73-3.17,1.12-6.46,1.14-9.85.14-24.93-20.02-45.32-44.95-45.46-24.93-.14-45.32,20.02-45.46,44.95-.02,3.38.34,6.68,1.03,9.86-18.39,5.65-31.84,22.74-31.95,42.97-.14,24.93,20.02,45.32,44.95,45.46,11.8.07,22.59-4.42,30.69-11.81,8.02,7.48,18.75,12.09,30.56,12.16,24.93.14,45.32-20.02,45.46-44.95.11-20.23-13.14-37.47-31.46-43.33Z"/>
    <path class="cls-4" d="M249.08,279.44c-.18,0-.36,0-.54.01,3.18-5.24,5.03-11.37,5.07-17.94.11-19.33-15.52-35.14-34.85-35.25-19.33-.11-35.14,15.52-35.25,34.85-.04,6.56,1.75,12.72,4.87,17.99-.18,0-.36-.02-.54-.02-19.33-.11-35.14,15.52-35.25,34.85-.11,19.33,15.52,35.14,34.85,35.25,13.15.07,24.67-7.15,30.73-17.86,5.93,10.78,17.37,18.13,30.52,18.2,19.33.11,35.14-15.52,35.25-34.85.11-19.33-15.52-35.14-34.85-35.25ZM218.91,296.36c-.19.31-.37.63-.55.94-.18-.32-.35-.64-.54-.95.18,0,.36.02.54.02s.36,0,.54-.01Z"/>
    <circle class="cls-1" cx="187.64" cy="314.14" r="23.12"/>
    <circle class="cls-1" cx="248.89" cy="314.49" r="23.12"/>
    <circle class="cls-1" cx="218.56" cy="261.32" r="23.12"/>
  </g>
</svg>