<?xml version="1.0" encoding="UTF-8"?>
<svg id="_레이어_1" data-name="레이어 1" xmlns="http://www.w3.org/2000/svg" xmlns:xlink="http://www.w3.org/1999/xlink" viewBox="0 0 428.99 359.69">
  <defs>
    <style>
      .cls-1 {
        fill: url(#_무제_그라디언트_153-2);
      }

      .cls-1, .cls-2, .cls-3, .cls-4, .cls-5, .cls-6 {
        stroke-width: 0px;
      }

      .cls-2 {
        fill: url(#_무제_그라디언트_160-2);
      }

      .cls-3 {
        fill: url(#_무제_그라디언트_160);
      }

      .cls-4 {
        fill: url(#_무제_그라디언트_153);
      }

      .cls-5 {
        fill: url(#_무제_그라디언트_167);
      }

      .cls-6 {
        fill: #4dbbff;
      }
    </style>
    <radialGradient id="_무제_그라디언트_153" data-name="무제 그라디언트 153" cx="-1204.36" cy="2274.21" fx="-1204.36" fy="2274.21" r="49.6" gradientTransform="translate(1497.24 -1994.2) rotate(.24)" gradientUnits="userSpaceOnUse">
      <stop offset="0" stop-color="#b5f743"/>
      <stop offset="1" stop-color="#4dbbff"/>
    </radialGradient>
    <radialGradient id="_무제_그라디언트_153-2" data-name="무제 그라디언트 153" cx="-1342.55" cy="2274.21" fx="-1342.55" fy="2274.21" r="49.6" xlink:href="#_무제_그라디언트_153"/>
    <radialGradient id="_무제_그라디언트_160" data-name="무제 그라디언트 160" cx="-1273.45" cy="2281.92" fx="-1273.45" fy="2281.92" r="77.55" gradientTransform="translate(1497.24 -1994.2) rotate(.24)" gradientUnits="userSpaceOnUse">
      <stop offset="0" stop-color="#b5f743"/>
      <stop offset="1" stop-color="#4dbbff"/>
    </radialGradient>
    <radialGradient id="_무제_그라디언트_167" data-name="무제 그라디언트 167" cx="-1273.45" cy="2281.78" fx="-1273.45" fy="2281.78" r="67.86" gradientTransform="translate(1497.24 -1994.2) rotate(.24)" gradientUnits="userSpaceOnUse">
      <stop offset="0" stop-color="#fff7eb"/>
      <stop offset="1" stop-color="#b5f743"/>
    </radialGradient>
    <radialGradient id="_무제_그라디언트_160-2" data-name="무제 그라디언트 160" cx="-1273.45" cy="2285.65" fx="-1273.45" fy="2285.65" r="30.45" xlink:href="#_무제_그라디언트_160"/>
  </defs>
  <path class="cls-4" d="M337.65,255.24c.03-7.58-4.27-13.26-5.32-14.48-13.8-16.04-56.15-13.8-80.94,9-10.86,9.99-28.81,33.54-19.32,51.91,10.1,19.57,46.47,23.8,59.68,9.56,3.62-3.9,5.08-8.7,5.69-12.66.04,0,.07,0,.11,0,12.11.05,21.98-9.65,22.2-21.72,10.16-1.96,17.86-10.88,17.91-21.62Z"/>
  <path class="cls-1" d="M91.35,254.23c.03-7.58,4.38-13.22,5.44-14.43,13.94-15.92,56.26-13.34,80.87,9.67,10.77,10.08,28.53,33.78,18.89,52.07-10.26,19.49-46.66,23.42-59.76,9.07-3.59-3.93-5.01-8.74-5.58-12.71-.04,0-.07,0-.11,0-12.11-.05-21.9-9.83-22.02-21.9-10.15-2.04-17.77-11.03-17.73-21.77Z"/>
  <path class="cls-6" d="M195.89,326.27c-3.81-.02-7.42-1.88-9.66-4.98-2.22-3.09-2.83-7.09-1.64-10.71l4.37-13.26-11.27-8.26c-4.19-3.07-5.91-8.45-4.28-13.37,1.63-4.93,6.2-8.22,11.39-8.2l13.97.06,4.37-13.26c1.63-4.93,6.21-8.23,11.39-8.21,5.19.02,9.74,3.36,11.33,8.3l4.26,13.3,13.97.06c5.19.02,9.74,3.36,11.32,8.3,1.58,4.94-.18,10.3-4.39,13.33l-11.34,8.17,4.26,13.3c1.16,3.63.52,7.63-1.73,10.69-2.26,3.08-5.89,4.92-9.7,4.9-2.53-.01-4.95-.81-7-2.31l-11.27-8.26-11.33,8.16c-2.07,1.49-4.49,2.27-7.02,2.26h0Z"/>
  <g>
    <path class="cls-3" d="M293.13,263.93c-1.03-3.21-3.41-5.79-6.53-7.07l-19.44-8.01c-1.38-.57-2.82-.86-4.3-.86-3.64-.02-7.11,1.73-9.26,4.68-.87,1.18-1.48,2.51-1.84,3.9l-13.46-.06-4.08-12.73c1.78-1.14,3.24-2.77,4.17-4.75,1.88-4.01,1.26-8.79-1.58-12.19l-13.49-16.12c-2.17-2.59-5.34-4.08-8.72-4.1s-6.57,1.45-8.75,4.02l-13.62,16.01c-2.87,3.37-3.53,8.15-1.68,12.18.94,2.04,2.44,3.71,4.27,4.87l-4.15,12.6-13.46-.06c-.35-1.39-.95-2.72-1.8-3.91-2.13-2.96-5.58-4.74-9.23-4.76-1.48,0-2.93.27-4.32.83l-19.51,7.85c-3.13,1.26-5.53,3.82-6.58,7.03-1.06,3.2-.65,6.69,1.12,9.56l11.01,17.89c2.08,3.4,5.7,5.43,9.69,5.45,2.75.01,5.31-.95,7.32-2.6l10.85,7.95-4.21,12.77c-.26-.02-.52-.03-.78-.03-3.17-.01-6.23,1.31-8.39,3.62-2.16,2.3-3.27,5.44-3.06,8.59l1.44,20.97c.4,5.95,5.39,10.63,11.35,10.65.92,0,1.84-.1,2.74-.32l20.44-4.95c4.3-1.04,7.65-4.52,8.51-8.86.44-2.18.21-4.4-.57-6.4l10.95-7.89,10.89,7.98c-.8,2-1.04,4.21-.62,6.4.83,4.35,4.15,7.86,8.44,8.93l20.39,5.12c.89.22,1.81.34,2.73.34,5.96.02,10.98-4.61,11.44-10.55l1.61-20.96c.24-3.16-.85-6.3-2.99-8.62-2.15-2.33-5.2-3.67-8.36-3.69-.26,0-.52,0-.78.02l-4.1-12.81,10.92-7.86c2,1.67,4.55,2.65,7.3,2.66,3.98.02,7.61-1.99,9.72-5.36l11.17-17.82c1.79-2.86,2.22-6.34,1.19-9.55Z"/>
    <path class="cls-5" d="M283.79,266.63l-22.35-9.21c-.29-.12-.59.16-.49.45l2.83,8.85-32.6-.13c-.16,0-.3-.1-.35-.26l-9.89-30.88,9.14.04c.31,0,.49-.37.29-.61l-15.51-18.54c-.15-.18-.42-.18-.57,0l-15.66,18.41c-.2.24-.03.61.28.61l9.31.04-10.15,30.79c-.05.15-.19.25-.35.25l-32.6-.13,2.91-8.82c.1-.3-.2-.58-.49-.46l-22.43,9.02c-.21.09-.3.34-.18.54l12.67,20.59c.16.27.57.22.67-.08l2.9-8.81,26.29,19.27c.13.09.18.26.13.41l-10.21,30.98-7.52-5.51c-.25-.19-.61,0-.59.32l1.65,24.12c.02.23.23.39.46.33l23.49-5.69c.31-.07.39-.47.13-.66l-7.46-5.47,26.47-19.06c.13-.09.31-.09.43,0l26.31,19.28-7.51,5.41c-.26.18-.18.58.13.66l23.45,5.88c.22.06.44-.1.46-.33l1.85-24.1c.02-.31-.33-.51-.58-.33l-7.56,5.45-9.95-31.06c-.05-.15,0-.32.14-.41l26.45-19.05,2.83,8.83c.1.3.5.35.67.08l12.84-20.48c.12-.19.04-.45-.17-.54Z"/>
  </g>
  <path class="cls-2" d="M215.72,257.37l6.39,19.93c.17.54.67.9,1.23.9l20.93.09c1.26,0,1.77,1.62.75,2.35l-16.98,12.23c-.46.33-.65.91-.48,1.45l6.39,19.93c.38,1.2-.99,2.19-2,1.44l-16.88-12.37c-.45-.33-1.07-.34-1.53,0l-16.98,12.23c-1.02.74-2.39-.27-1.99-1.46l6.55-19.88c.18-.53-.01-1.12-.47-1.45l-16.88-12.37c-1.01-.74-.49-2.35.77-2.35l20.93.09c.56,0,1.06-.36,1.24-.89l6.55-19.88c.39-1.2,2.09-1.19,2.47.01Z"/>
</svg>